<?xml version="1.0" encoding="utf-8"?>
<!-- Generator: Adobe Illustrator 23.1.0, SVG Export Plug-In . SVG Version: 6.00 Build 0)  -->
<svg version="1.1"  xmlns="http://www.w3.org/2000/svg" xmlns:xlink="http://www.w3.org/1999/xlink" x="0px" y="0px"
	 viewBox="0 0 920 1750" style="enable-background:new 0 0 920 1750;" xml:space="preserve">
<style type="text/css">
	.st0{fill:#FFFFFF;}
</style>
<path class="st0" d="M889.7,1137.6l-2.9-0.8l-364.4,282.9l-0.7-0.9l-0.5,0.1l-94.8-451.5l-32.5-15.8l-16.7-8.1v0.7h-1.5v-1.4
	l-1.9-0.9l-112.4-54.5l-0.3,1l-1.4-0.4l0.4-1.3L226,870.3l-98.6-47.8l-0.6,0.8l-1.2-0.9l0.4-0.6L11.4,766.3l-0.3,0.2l-0.9-1.2
	l102.9-80l0.1-0.1l0,0l116.7-90.7l-0.2-0.3l1.3-0.7l0.1,0.1l100.5-78.1l-0.1-0.3l0.6-0.1l42.3-32.9l-0.1-54.5l-0.6,0.3l-0.6-1.3
	l1.2-0.6l0-4.5L374,299l-1,0.2l-0.3-1.4l1.3-0.2l-0.4-147.5l-0.9-0.2l0.3-1.4l0.6,0.1l-0.4-127.5l-0.1-0.1l0.6-1.3L490,76.8l0.7,0.2
	l0,0.1l132.6,65.1l0.3-0.4l1.2,0.9l-0.2,0.2L738.8,199l0.5-0.4l0.7,0.9l47.9,23.5l2.8-1.4l0.6,4.6l-3.3-1.6L571.5,330.9L376,482.9
	l0.7,240l51.1,243.6l222.5,107.8l236.2,60.9l2.3-1.8 M375.8,425.3l17.3-8.5l36.1-127.8l-53.7,9.7L375.8,425.3z M551,241.1l38.2-52.2
	l-123.8-22.3l-34.1,120.7l99-17.8L551,241.1z M532.3,269.1l151.3-27.2l37.6-29.3l-130.5-23.5L532.3,269.1z M303.4,733.9l-2.4-4.5
	l-44.2-83.8l-74.3,101.6l40.8,36.5l52.7,47.1L303.4,733.9z M277.2,831.9l57,50.9l41.6,37.2l-0.1-49.2l-71.2-135L277.2,831.9z
	 M304,731.9l41.9-148.3l-9.7-46.4l-78.4,107.1L304,731.9z M304.9,733.7l9.5,18.1l61,115.8L375.1,723l-16.9-80.5l-11.7-55.8
	L304.9,733.7z M375.2,211.8l0.2,85.5l54.2-9.7l34.3-121.2l-88.9-16L375.2,211.8z M430.8,288.8L412.9,352l-18.1,64l44-21.6L529,271.2
	L430.8,288.8z M287.8,898.6l88,42.6l0-19.3l-91.4-81.7l-7.6-6.8l-14.9,52.6L287.8,898.6z M174.3,843.6l86.3,41.8l15-53l-93.9-84
	l-53.3,72.9L174.3,843.6z M113.2,687.2L12.7,765.3l55.7,27l58.6,28.4l53.6-73.2l-34.8-31.1L113.2,687.2z M230.6,595.9l-116.3,90.4
	l63,56.4l4,3.6l74.7-102.1l-7.5-14.2L230.6,595.9z M331.9,517.2L231.8,595l25.3,47.9l78.7-107.6l-1.7-8.1L331.9,517.2z M333.2,516.2
	l2,9.6l1.7,7.9l34.6-47.4L333.2,516.2z M337.3,535.6l9.4,45l26.7-94.3L337.3,535.6z M347.4,583.7l27.7,132.2l-0.6-228L347.4,583.7z
	 M374.7,21.8l0.4,127l89.3,16.1l24.6-87L374.7,21.8z M490.3,78.6L468,157.3l-2.2,7.9l124.4,22.4l10.2-14l22-30.1L490.3,78.6z
	 M623.7,144.1l-12.3,16.8l-19.7,26.9l131.1,23.6l14.7-11.4L623.7,144.1z M739,200.7L725.7,211l-1,0.7l58.1,10.5L739,200.7z
	 M723.2,213l-25.3,19.7l-11.1,8.7l97-17.4L723.2,213z M782.9,225.5l-98.6,17.7l-107.1,83.2L782.9,225.5z M631.7,282.3l49.5-38.5
	l-150.1,27L441.6,393l129.1-63.4L631.7,282.3z M565.1,334l-125.3,61.5l-45.9,62.8l-15,20.4L565.1,334z M425.3,412.9l11.6-15.9
	l-42.7,21l-13.7,48.3l-3.6,12.7L425.3,412.9z M392.5,418.8l-16.7,8.2l0,4.7l0.1,45.7L392.5,418.8z M377.2,942l21.4,10.4l24.1,11.7
	l-45.6-40.7L377.2,942z M377.1,921.3l34.8,31.2l12.6,11.2L377,873.6L377.1,921.3z M376.6,730.1l0.4,140.3l48.3,91.6L376.6,730.1z
	 M806.3,1197.5l75.8-58.9l-28.6,11.5l-25.6,10.3l15,7.3l-0.6,1.3l-16.2-7.8l-124.8,50.1l40.6,36.3L806.3,1197.5z M522.4,1146.2
	l58.9,111.7l52.7-21.2l64.6-25.9l-75.1-67.2L522.4,1146.2z M621.9,1142.1l-115.8-103.5l-46.8-12.1l62.3,118.2l7.1-0.2L621.9,1142.1z
	 M700.1,1210.1l124.2-49.9l-42.9-20.8l-155.8,4L700.1,1210.1z M679.7,1295.8l61-47.4l-40.9-36.6L582,1259.1l42.1,79.8L679.7,1295.8z
	 M522.5,1417.8l1.8-1.4l98.6-76.6l-42.3-80.2l-84.3,33.8L522.5,1417.8z M496.1,1292.1l83.9-33.7l-59.1-112.2l-55,1.4L496.1,1292.1z
	 M465.5,1146.2l54.6-1.4L457.4,1026l-18-4.7l0.4-1.4l16.7,4.3l-27.6-52.4L465.5,1146.2z M458.4,1024.8l45.4,11.7l-74.1-66.3
	L458.4,1024.8z M431.5,969.9l75.4,67.4l136.3,35.2L431.5,969.9z M649.8,1075.7l-140.5-36.3l114.8,102.7l154.5-4L649.8,1075.7z
	 M656.9,1077.5l124.8,60.5l52-1.3l47.7-1.2L656.9,1077.5z M784.6,1139.4l41.5,20.1l56.5-22.7L784.6,1139.4z"/>
</svg>
